<svg xmlns="http://www.w3.org/2000/svg" viewBox="0 0 512 512" width="512" height="512">
<rect x="0" y="0" width="512" height="512" rx="80" ry="80" fill="#888888"/>
<g fill="#FFFFFF">
  <rect height="30" width="380" x="66" y="416"/>
  <path d="M376,137.1V66H136v71.1C136,253.1,87.1,363.1,71,396H441C424.9,363.1,376,253.1,376,137.1Zm-27.8,121.5c8.5,26.1,5.7,48-8,61.6-8.5,8.5-20.2,12.8-34.1,12.8a89.8,89.8,0,0,1-27.6-4.8,141.4,141.4,0,0,1-22.6-9.8,141.4,141.4,0,0,1-22.6,9.8,89.8,89.8,0,0,1-27.6,4.8c-13.9,0-25.6-4.3-34.1-12.8-13.6-13.7-16.5-35.5-8-61.6A141.4,141.4,0,0,1,173.6,236a141.4,141.4,0,0,1-9.8-22.6c-8.5-26.1-5.7-48,8-61.6,13.7-13.6,35.5-16.5,61.6-8a141.4,141.4,0,0,1,22.6,9.8,141.4,141.4,0,0,1,22.6-9.8c26.1-8.5,48-5.6,61.6,8,13.6,13.7,16.5,35.5,8,61.6A141.4,141.4,0,0,1,338.4,236,141.4,141.4,0,0,1,348.2,258.6Z"/>
  <path d="M188.9,212.2a215.9,215.9,0,0,1,43.3-43.3c-2.1-.8-4.1-1.6-6.2-2.3a66,66,0,0,0-20-3.6c-7.4,0-13.4,1.9-17.2,5.8-6.8,6.8-7.6,20.4-2.1,37.2C187.3,208,188.1,210.1,188.9,212.2Z"/>
  <path d="M310.6,236a194.2,194.2,0,0,0-54.6-54.6A194.2,194.2,0,0,0,201.4,236a194.2,194.2,0,0,0,54.6,54.6A194.2,194.2,0,0,0,310.6,236ZM256,260a24,24,0,1,1,24-24A24,24,0,0,1,256,260Z"/>
  <path d="M188.9,259.8c-.8,2.1-1.6,4.1-2.3,6.2-5.5,16.8-4.7,30.4,2.1,37.2,6.8,6.8,20.4,7.6,37.2,2.1,2-.7,4.1-1.5,6.2-2.3a215.9,215.9,0,0,1-43.3-43.3Z"/>
  <path d="M306.1,163a66,66,0,0,0-20,3.6c-2,.7-4.1,1.5-6.2,2.3a215.9,215.9,0,0,1,43.3,43.3c.8-2.1,1.6-4.1,2.3-6.2,5.5-16.8,4.7-30.4-2.1-37.2C319.4,164.9,313.5,163,306.1,163Z"/>
  <path d="M323.1,259.8a215.9,215.9,0,0,1-43.3,43.3c2.1.8,4.1,1.6,6.2,2.3,16.8,5.5,30.4,4.7,37.2-2.1s7.6-20.4,2.1-37.2C324.7,264,323.9,261.9,323.1,259.8Z"/>
</g>
</svg>
