<?xml version="1.0" encoding="iso-8859-1"?>
<!-- Generator: Adobe Illustrator 16.0.0, SVG Export Plug-In . SVG Version: 6.00 Build 0)  -->
<!DOCTYPE svg PUBLIC "-//W3C//DTD SVG 1.1//EN" "http://www.w3.org/Graphics/SVG/1.1/DTD/svg11.dtd">
<svg version="1.1" id="Capa_1" xmlns="http://www.w3.org/2000/svg" xmlns:xlink="http://www.w3.org/1999/xlink" x="0px" y="0px"
	 width="106.048px" height="106.048px" viewBox="0 0 106.048 106.048" style="enable-background:new 0 0 106.048 106.048;"
	 xml:space="preserve">
<rect x="0" y="0" width="106.048" height="106.048" rx="21.21" ry="21.21" style="fill:#888888;"/>
<g>
	<path style="fill:#FFFFFF;" d="M62.873,47.224h9.465v5.385h-9.465V47.224z M65.446,26.771h-5.773v9.052h5.773V26.771z
		 M106.048,21.209v63.629c0,11.666-9.543,21.21-21.21,21.21H21.209C9.543,106.048,0,96.504,0,84.838V21.209
		C0,9.543,9.543,0,21.209,0h63.628C96.505,0,106.048,9.543,106.048,21.209z M92.792,84.838c0-4.391-14.437-7.953-32.249-7.953
		c-17.821,0-32.26,3.562-32.26,7.953s14.439,7.954,32.26,7.954C78.355,92.792,92.792,89.229,92.792,84.838z M92.43,48.125
		c-0.503-0.474-1.284-0.474-1.781,0l-4.401,4.484H74.431v-5.385h10.045c0.953,0,1.9-0.085,2.807-0.256
		c0.917-0.179,1.678-0.652,2.299-1.442c0.528-0.616,0.793-1.473,0.793-2.63c0-0.795-0.238-1.781-0.668-3.006l-3.807-9.067
		c-1.217-2.783-2.812-4.735-4.789-5.822c-1.963-1.113-4.039-1.642-6.225-1.642H59.673v-7.213h4.453
		c0.269,0.445,0.585,0.728,0.932,0.849c0.337,0.138,0.643,0.197,0.911,0.197h21.396c0.693,0,1.212-0.197,1.554-0.585
		c0.347-0.386,0.569-0.847,0.652-1.377c0-0.445-0.166-0.88-0.513-1.31c-0.357-0.44-0.922-0.663-1.693-0.663H66.756
		c-0.963,0-1.584,0.122-1.895,0.329c-0.306,0.228-0.549,0.505-0.735,0.865H51.932c-0.163-0.181-0.36-0.404-0.583-0.663
		c-0.207-0.267-0.632-0.394-1.24-0.394H28.459c-0.347,0-0.753,0.15-1.253,0.461c-0.472,0.318-0.71,0.808-0.71,1.518
		c0,0.678,0.238,1.219,0.71,1.559c0.505,0.36,0.88,0.531,1.131,0.531h21.771c0.163,0,0.445-0.075,0.847-0.197
		c0.394-0.127,0.712-0.456,0.977-0.992h4.593v7.091H29.127c-0.611-1.491-1.603-2.742-2.949-3.744
		c-1.362-1.004-2.91-1.507-4.66-1.507c-2.276,0-4.205,0.805-5.838,2.423c-1.628,1.615-2.423,3.562-2.423,5.849
		c0,2.268,0.795,4.189,2.423,5.764c1.634,1.589,3.562,2.363,5.838,2.363c2.612,0,4.676-0.958,6.149-2.895l17.844,6.698l2.354,5.885
		c0.344,0.709,0.808,1.38,1.38,2.053c0.572,0.653,1.781,0.971,3.622,0.971h7.93v5.385H47.864c-0.699,0-1.267,0.56-1.267,1.253
		c0,0.694,0.567,1.253,1.267,1.253h38.978c0.394,0,0.721-0.207,0.922-0.507l4.666-4.702C92.916,49.417,92.916,48.627,92.43,48.125z
		 M74.622,26.644h-5.903v9.052h5.903V26.644z M83.812,33.859c-0.269-0.608-0.491-1.186-0.652-1.711
		c-0.714-1.574-1.48-2.732-2.314-3.478c-0.823-0.738-1.817-1.294-2.946-1.628v8.78h6.69C84.32,35.112,84.062,34.455,83.812,33.859z
		 M22.17,23.363h3.674c-1.062-1.491-2.498-2.229-4.326-2.229c-1.491,0-2.763,0.5-3.819,1.501c-1.043,1.007-1.559,2.242-1.559,3.749
		c0,1.489,0.515,2.731,1.559,3.733c1.056,0.997,2.322,1.499,3.819,1.499c1.124,0,2.185-0.344,3.159-1.043l-2.633-1.062
		c-0.712-0.244-1.39-0.599-2.037-1.028c-0.653-0.445-0.971-1.139-0.971-2.1c0-0.976,0.298-1.714,0.909-2.227
		C20.552,23.612,21.305,23.363,22.17,23.363z M61.009,80.002c-9.507,0-17.212,1.895-17.212,4.246c0,2.34,7.706,4.246,17.212,4.246
		s17.212-1.9,17.212-4.246C78.221,81.896,70.516,80.002,61.009,80.002z"/>
</g>
<g>
</g>
<g>
</g>
<g>
</g>
<g>
</g>
<g>
</g>
<g>
</g>
<g>
</g>
<g>
</g>
<g>
</g>
<g>
</g>
<g>
</g>
<g>
</g>
<g>
</g>
<g>
</g>
<g>
</g>
</svg>
