<?xml version="1.0" ?><!DOCTYPE svg  PUBLIC '-//W3C//DTD SVG 1.1//EN'  'http://www.w3.org/Graphics/SVG/1.1/DTD/svg11.dtd'><svg height="100%" style="fill-rule:evenodd;clip-rule:evenodd;stroke-linejoin:round;stroke-miterlimit:2;" version="1.1" viewBox="0 0 32 32" width="100%" xml:space="preserve" xmlns="http://www.w3.org/2000/svg" xmlns:serif="http://www.serif.com/" xmlns:xlink="http://www.w3.org/1999/xlink"><path d="M3,11c0,0 23,-0.006 23,-0.006c1.302,-0 3,0.006 3,0.006l-0.007,-5.006c0,-0.796 -0.316,-1.559 -0.879,-2.122c-0.562,-0.562 -1.325,-0.878 -2.121,-0.878c-4.519,-0 -15.474,-0 -19.993,-0c-0.796,-0 -1.559,0.316 -2.121,0.878c-0.563,0.563 -0.879,1.326 -0.879,2.122c0,1.743 0,3.263 0,5.006Z"/><path d="M27,13.994c0,-0.552 -0.448,-1 -1,-1l-20.007,-0c-0.552,-0 -1,0.448 -1,1l0,4.665c0,5.688 4.912,10.341 11.004,10.341c6.091,0 11.003,-4.653 11.003,-10.341l0,-4.665Zm-11.007,3.006c-2.208,-0 -4,1.792 -4,4c0,2.208 1.792,4 4,4c2.208,-0 4,-1.792 4,-4c0,-2.208 -1.792,-4 -4,-4Zm0,2c1.104,-0 2,0.896 2,2c0,1.104 -0.896,2 -2,2c-1.104,-0 -2,-0.896 -2,-2c0,-1.104 0.896,-2 2,-2Z"/></svg>