<svg version="1.1" xmlns="http://www.w3.org/2000/svg" x="0px" y="0px"
	 width="106.048px" height="106.048px" viewBox="0 0 106.048 106.048">
<rect x="0" y="0" width="106.048" height="106.048" rx="21.21" ry="21.21" fill="#888888"/>
<g>
	<path fill="#FFFFFF" d="M24.894,48.13c0.798-3.363,2.483-6.162,5.069-8.427
		c2.556-2.198,5.611-3.467,9.09-3.806h2.682c3.511,0.334,6.538,1.608,9.099,3.806c2.641,2.266,4.312,5.064,5.059,8.427
		c0,0,2.724-0.111,2.724,2.354H22.418C22.418,47.716,24.894,48.13,24.894,48.13z"/>
	<path fill="#FFFFFF" d="M67.605,79.639H48.835v-4.825H31.793v4.825H13.256V53.023h54.35V79.639z"/>
	<path fill="#FFFFFF" d="M92.792,37.515c-0.901,0.238-1.709,0.344-2.46,0.344c-0.481,0-1.082-0.07-1.761-0.228
		c-0.72-0.171-1.454-0.368-2.294-0.627c-0.797-0.223-1.584-0.424-2.319-0.608c-0.735-0.16-1.352-0.246-1.844-0.246
		c-0.238,0-0.626,0.059-1.159,0.186c-0.533,0.117-1.077,0.288-1.652,0.487c-0.574,0.207-1.082,0.398-1.548,0.566
		c-0.332,0.119-0.569,0.15-0.787,0.187v42.497h-2.305V25.965h2.305v1.771c1.869-0.748,3.63-1.145,5.281-1.145
		c0.497,0,1.072,0.086,1.771,0.254c0.693,0.158,1.449,0.344,2.257,0.598c0.824,0.246,1.564,0.468,2.289,0.611
		c0.679,0.176,1.273,0.254,1.761,0.254c0.911,0,1.719-0.174,2.46-0.492v9.699H92.792z"/>
</g>
</svg>
